<?xml version="1.0" standalone="no"?>
<!DOCTYPE svg PUBLIC "-//W3C//DTD SVG 20010904//EN"
 "http://www.w3.org/TR/2001/REC-SVG-20010904/DTD/svg10.dtd">
<svg version="1.0" xmlns="http://www.w3.org/2000/svg"
 width="512.000000pt" height="512.000000pt" viewBox="0 0 512.000000 512.000000"
 preserveAspectRatio="xMidYMid meet">
<metadata>
Created by potrace 1.11, written by Peter Selinger 2001-2013
</metadata>
<g transform="translate(0.000000,512.000000) scale(0.100000,-0.100000)"
fill="#000000" stroke="none">
<path d="M580 4792 c-12 -4 -13 -109 -1 -116 5 -3 37 -8 72 -11 149 -13 155
-17 168 -131 11 -92 8 -1562 -3 -1614 -12 -54 -33 -70 -106 -76 -144 -12 -142
-11 -139 -75 3 -58 11 -67 59 -63 64 4 784 4 824 -1 22 -2 45 0 51 5 12 10 13
105 1 117 -3 4 -21 8 -39 9 -18 2 -58 5 -90 7 -94 8 -104 24 -113 189 -5 94
-8 544 -5 654 l1 31 148 3 c435 6 800 1 809 -12 13 -22 4 -707 -10 -788 -13
-70 -10 -69 -201 -84 -34 -3 -43 -18 -42 -71 2 -59 7 -62 88 -59 97 5 707 5
783 0 37 -2 63 1 67 8 13 18 9 103 -4 113 -7 5 -26 10 -43 11 -96 4 -154 15
-168 30 -9 9 -20 53 -25 97 -12 92 -9 1560 2 1615 14 65 33 75 163 84 34 2 67
7 73 11 11 7 14 115 3 115 -5 1 -216 2 -471 3 -302 1 -462 -1 -463 -8 -5 -34
-4 -97 1 -106 4 -5 38 -12 76 -15 123 -9 140 -15 153 -57 24 -74 35 -692 13
-706 -16 -9 -938 -8 -947 1 -9 8 -8 469 0 588 12 160 14 162 169 174 38 3 71
8 75 11 3 3 6 31 6 61 1 42 -2 54 -14 55 -64 2 -913 3 -921 1z"/>
<path d="M3674 4119 c-112 -14 -244 -66 -362 -142 l-69 -45 0 -97 -1 -97 35
-15 c20 -8 39 -11 42 -6 4 4 25 48 46 96 41 94 52 105 130 132 59 21 209 24
270 7 95 -27 182 -110 207 -196 15 -54 16 -61 22 -128 4 -56 3 -58 -20 -59
-13 -1 -27 -2 -31 -3 -5 -1 -33 -6 -63 -10 -30 -5 -64 -10 -75 -12 -11 -2 -31
-6 -45 -9 -14 -3 -36 -7 -50 -10 -14 -3 -38 -8 -55 -11 -42 -7 -89 -19 -175
-44 -203 -58 -302 -147 -345 -308 -18 -70 -16 -214 3 -266 56 -147 183 -222
369 -219 121 2 149 14 315 144 84 65 158 123 164 128 9 7 11 -22 8 -109 -3
-83 0 -121 8 -126 6 -4 106 -7 222 -7 l211 0 3 33 c2 18 0 36 -5 41 -4 4 -37
11 -73 14 -70 7 -109 25 -112 53 -1 9 -2 226 -3 482 -1 461 -1 465 -24 523
-31 79 -75 133 -149 183 -103 71 -249 101 -398 83z m322 -842 l1 -196 -46 -45
c-125 -124 -207 -169 -316 -174 -88 -5 -145 10 -190 49 -41 36 -56 79 -60 167
-4 100 26 185 85 240 49 45 192 98 350 128 14 2 31 7 38 9 7 2 34 7 60 11 26
3 49 8 51 10 21 20 26 -19 27 -199z"/>
<path d="M3788 2415 c-2 -1 -37 -5 -78 -8 -241 -19 -453 -111 -605 -262 -71
-70 -100 -109 -143 -187 -37 -68 -88 -217 -96 -279 -3 -24 -10 -69 -14 -100
-11 -75 -7 -267 7 -360 41 -263 162 -461 368 -599 147 -98 342 -150 571 -151
76 -1 151 1 167 4 17 3 55 9 85 12 74 9 251 68 325 110 165 93 298 238 377
412 34 75 73 220 84 309 10 88 11 283 2 334 -8 41 -30 148 -33 160 -1 3 -5 19
-10 35 -40 143 -173 319 -308 408 -113 75 -282 135 -429 152 -56 7 -265 14
-270 10z m223 -179 c275 -82 429 -382 424 -823 -5 -415 -140 -683 -382 -764
-88 -29 -243 -35 -329 -14 -129 33 -247 115 -317 220 -97 146 -146 347 -152
612 -7 359 99 621 292 726 119 64 330 83 464 43z"/>
<path d="M1178 1779 c-102 -16 -140 -36 -233 -124 -49 -46 -94 -84 -98 -85 -4
0 -5 45 -2 99 4 66 2 101 -5 106 -6 3 -27 1 -48 -6 -68 -23 -241 -65 -302 -74
-101 -13 -101 -13 -98 -53 3 -41 -6 -38 134 -41 63 -2 72 -14 80 -111 8 -81 7
-653 0 -715 -2 -16 -4 -51 -5 -76 -2 -79 -26 -96 -151 -102 -45 -3 -57 -11
-56 -39 3 -40 13 -46 68 -41 58 5 485 5 533 -1 48 -5 64 8 56 46 -6 31 -9 33
-56 35 -82 3 -114 13 -130 36 -18 28 -27 201 -27 528 0 210 2 251 16 281 23
47 62 89 111 120 153 95 343 57 415 -82 17 -34 23 -54 36 -130 6 -36 6 -427 0
-535 -2 -33 -4 -83 -5 -111 -2 -81 -26 -101 -125 -105 -73 -3 -83 -8 -80 -37
1 -15 2 -32 3 -38 1 -8 23 -10 69 -7 90 6 454 6 520 -1 58 -5 74 8 63 54 -6
23 -12 25 -71 27 -81 4 -116 18 -124 49 -17 67 -28 604 -16 726 6 55 14 76 41
112 91 118 248 163 377 106 90 -40 136 -104 151 -212 11 -75 12 -660 1 -768
-4 -41 -3 -80 2 -86 5 -7 29 -10 61 -7 72 6 251 6 315 0 58 -6 74 7 63 53 -6
22 -13 25 -52 26 -24 0 -61 4 -82 8 -63 12 -65 23 -72 496 -3 184 -7 353 -10
375 -8 58 -62 160 -106 200 -111 100 -267 131 -424 84 -75 -22 -103 -41 -219
-151 -34 -32 -64 -58 -68 -58 -4 0 -16 17 -27 38 -43 83 -167 173 -257 186
-82 12 -120 13 -166 5z"/>
</g>
</svg>
